<?xml version="1.0" standalone="no"?>
<!DOCTYPE svg PUBLIC "-//W3C//DTD SVG 20010904//EN"
 "http://www.w3.org/TR/2001/REC-SVG-20010904/DTD/svg10.dtd">
<svg version="1.0" xmlns="http://www.w3.org/2000/svg"
 width="480.000000pt" height="480.000000pt" viewBox="0 0 480.000000 480.000000"
 preserveAspectRatio="xMidYMid meet">
<metadata>
Created by potrace 1.14, written by Peter Selinger 2001-2017
</metadata>
<g transform="translate(0.000000,480.000000) scale(0.100000,-0.100000)"
fill="#000000" stroke="none">
<path d="M0 4226 c0 -450 3 -576 13 -580 9 -5 9 -7 0 -12 -17 -8 -19 -2390 -2
-2410 7 -8 7 -14 -1 -19 -7 -4 -10 -198 -10 -606 l0 -599 1024 0 c810 0 1026
3 1030 12 5 10 7 10 12 1 8 -18 1054 -19 1072 -1 9 9 12 9 12 0 0 -9 31 -12
109 -12 108 0 109 0 115 25 9 35 -43 155 -66 155 -15 0 -18 -9 -18 -49 0 -32
6 -55 16 -65 8 -9 11 -16 6 -16 -22 0 -32 31 -33 104 -1 42 2 80 5 83 3 4 6
-6 6 -20 0 -20 5 -27 20 -27 12 0 25 -10 31 -24 7 -14 17 -22 25 -19 8 3 14 1
14 -5 0 -6 -5 -12 -11 -14 -8 -3 -7 -13 4 -33 l16 -30 30 65 c16 36 30 60 31
54 0 -6 -16 -46 -35 -88 -19 -43 -35 -81 -35 -87 0 -5 271 -9 710 -9 l710 0 0
1586 c0 1054 -3 1583 -10 1579 -6 -3 -10 -1 -10 4 0 6 4 11 10 11 6 0 10 289
10 810 l0 810 -70 0 c-38 0 -69 -3 -67 -7 1 -5 -3 -8 -8 -8 -6 0 -9 3 -8 7 2
5 -382 8 -852 8 -470 0 -855 -3 -855 -7 0 -5 9 -21 20 -38 11 -16 20 -33 20
-37 0 -3 -31 -6 -70 -6 -38 0 -70 2 -70 4 0 2 11 22 25 44 l25 40 -1445 0
-1445 0 0 -574z m280 544 c0 -5 -4 -10 -10 -10 -5 0 -10 5 -10 10 0 6 5 10 10
10 6 0 10 -4 10 -10z m2410 -190 l0 -190 -119 0 c-158 0 -165 5 -170 125 -5
141 15 165 144 165 l75 0 0 45 c0 45 0 45 35 45 l35 0 0 -190z m-1825 171 c3
-5 1 -12 -5 -16 -5 -3 -10 1 -10 9 0 18 6 21 15 7z m935 -41 l0 -39 -142 -3
-143 -3 0 -100 0 -100 143 -3 142 -3 0 -34 0 -35 -155 0 c-152 0 -156 1 -180
25 -24 23 -25 30 -25 150 0 132 7 160 43 175 12 5 88 9 170 9 l147 1 0 -40z
m395 30 c3 -5 1 -10 -4 -10 -6 0 -11 5 -11 10 0 6 2 10 4 10 3 0 8 -4 11 -10z
m2042 -46 c8 -21 -13 -42 -28 -27 -13 13 -5 43 11 43 6 0 13 -7 17 -16z
m-2027 -55 c0 -10 -78 -49 -99 -49 -20 0 -21 -5 -21 -100 l0 -100 -30 0 c-19
0 -30 5 -30 14 0 11 -8 10 -38 -5 -30 -15 -44 -17 -74 -8 -21 5 -42 18 -48 29
-5 10 -10 66 -10 124 l0 106 30 0 30 0 0 -86 c0 -101 9 -124 50 -124 46 0 60
30 60 127 l0 83 30 0 c20 0 30 -5 30 -15 0 -9 9 -15 21 -15 17 0 20 4 15 23
-4 17 1 27 22 39 26 16 27 16 44 -10 10 -15 18 -30 18 -33z m804 20 c26 -20
26 -22 26 -145 l0 -124 -119 0 c-153 0 -163 6 -169 109 l-4 71 111 0 c91 0
111 3 111 15 0 11 -21 15 -107 17 -104 3 -108 4 -111 26 -7 49 0 52 121 52
100 0 117 -3 141 -21z m377 -8 c16 -20 19 -40 19 -142 l0 -119 -35 0 -35 0 0
105 0 105 -75 0 -75 0 0 -105 0 -105 -35 0 -35 0 0 146 0 146 126 -4 c118 -3
127 -4 145 -27z m-2112 8 c35 -12 61 -53 61 -94 0 -32 -50 -85 -79 -85 -20 0
-21 5 -21 95 0 52 2 95 4 95 1 0 17 -5 35 -11z m461 -34 c0 -21 -27 -30 -45
-15 -23 19 -18 30 15 30 20 0 30 -5 30 -15z m-350 -5 c0 -5 -4 -10 -10 -10 -5
0 -10 5 -10 10 0 6 5 10 10 10 6 0 10 -4 10 -10z m2656 -146 c51 -17 91 -43
44 -29 -31 10 -107 43 -99 44 3 1 28 -6 55 -15z m139 -9 c17 -7 23 -14 15 -14
-8 0 -28 6 -45 14 -16 7 -23 14 -15 14 8 0 29 -6 45 -14z m575 5 c0 -5 -4 -10
-10 -10 -5 0 -10 5 -10 10 0 6 5 10 10 10 6 0 10 -4 10 -10z m-4265 -44 c61
-16 80 -25 60 -26 -20 -1 2 -11 70 -30 112 -32 113 -38 4 -15 -40 9 -74 13
-76 11 -5 -5 133 -50 245 -81 97 -27 67 -28 -54 -1 -150 33 -176 37 -170 27 3
-4 48 -21 101 -36 52 -16 93 -30 91 -32 -2 -2 -56 10 -121 27 -64 16 -122 30
-128 30 -20 0 7 -17 56 -35 26 -10 46 -19 44 -21 -1 -1 -79 17 -172 41 -139
36 -174 49 -192 70 -57 65 4 122 107 103 25 -5 86 -19 135 -32z m518 38 c9
-10 -4 -34 -18 -34 -17 0 -28 17 -20 30 7 11 28 13 38 4z m1298 -85 c-34 -39
-60 -74 -57 -76 3 -3 34 20 70 51 76 67 97 59 35 -15 -23 -27 -39 -52 -36 -55
3 -3 29 15 57 42 77 72 72 45 -9 -42 -39 -43 -69 -80 -66 -82 2 -3 42 24 87
58 l83 64 -115 -120 c-63 -65 -119 -122 -125 -126 -15 -11 -83 -10 -106 2 -23
13 -49 61 -49 93 0 30 37 81 130 177 76 78 80 78 16 -3 -21 -26 -36 -50 -34
-52 2 -3 42 34 88 80 46 46 86 82 88 80 3 -2 -23 -36 -57 -76z m2069 21 c62
-22 115 -39 117 -36 2 2 -23 19 -56 37 -34 17 -59 34 -57 36 2 2 53 -14 112
-36 145 -55 176 -90 139 -160 -26 -51 -63 -53 -193 -10 -101 34 -119 47 -32
24 30 -8 55 -13 57 -11 2 1 -46 22 -107 46 -61 24 -109 45 -106 47 2 2 40 -8
85 -22 45 -15 87 -25 93 -23 6 2 -55 33 -135 68 -81 35 -145 65 -144 66 1 2
63 -17 137 -40 118 -39 154 -47 139 -32 -2 2 -42 22 -89 44 -47 22 -82 41 -79
41 3 1 57 -17 119 -39z m-445 1 c3 -5 1 -12 -5 -16 -5 -3 -10 1 -10 9 0 18 6
21 15 7z m-3318 -7 c-3 -3 -12 -4 -19 -1 -8 3 -5 6 6 6 11 1 17 -2 13 -5z
m3540 -21 c29 -9 53 -20 53 -25 0 -11 1 -11 -66 17 -69 28 -63 32 13 8z
m-3300 -59 c-3 -3 -12 -4 -19 -1 -8 3 -5 6 6 6 11 1 17 -2 13 -5z m928 -44 c0
-8 -8 -16 -17 -18 -13 -2 -18 3 -18 18 0 15 5 20 18 18 9 -2 17 -10 17 -18z
m1515 10 c0 -5 -2 -10 -4 -10 -3 0 -8 5 -11 10 -3 6 -1 10 4 10 6 0 11 -4 11
-10z m9 -54 c8 -10 8 -16 -2 -24 -17 -14 -42 2 -34 22 8 20 21 20 36 2z
m-2292 -2 c-3 -3 -12 -4 -19 -1 -8 3 -5 6 6 6 11 1 17 -2 13 -5z m-100 -10
c-3 -3 -12 -4 -19 -1 -8 3 -5 6 6 6 11 1 17 -2 13 -5z m233 -4 c0 -5 -4 -10
-10 -10 -5 0 -10 5 -10 10 0 6 5 10 10 10 6 0 10 -4 10 -10z m3140 -10 c0 -5
-2 -10 -4 -10 -3 0 -8 5 -11 10 -3 6 -1 10 4 10 6 0 11 -4 11 -10z m-1201
-117 c0 -13 -3 -11 -10 7 -6 14 -20 36 -32 50 -12 14 -7 11 11 -7 17 -18 32
-41 31 -50z m501 57 c0 -5 -4 -10 -10 -10 -5 0 -10 5 -10 10 0 6 5 10 10 10 6
0 10 -4 10 -10z m-3520 -94 c0 -11 -19 -15 -25 -6 -3 5 1 10 9 10 9 0 16 -2
16 -4z m1300 -6 c0 -5 -5 -10 -11 -10 -5 0 -7 5 -4 10 3 6 8 10 11 10 2 0 4
-4 4 -10z m2160 -12 c19 -13 78 -79 133 -148 129 -164 152 -199 82 -125 -70
74 -62 58 30 -65 88 -118 102 -142 38 -70 -150 171 -151 158 -4 -50 107 -149
114 -160 108 -160 -3 0 -52 57 -109 128 -153 186 -183 205 -75 48 111 -160 90
-145 -46 33 -43 57 -81 100 -84 97 -3 -3 13 -38 36 -78 54 -93 49 -88 -108
117 -114 149 -131 175 -131 208 0 27 7 45 25 62 30 31 62 32 105 3z m-460 -51
c0 -2 -10 -12 -22 -23 l-23 -19 19 23 c18 21 26 27 26 19z m1580 -32 c0 -27
-17 -36 -42 -23 -23 11 -23 34 -1 46 24 14 43 4 43 -23z m-1745 -13 c-3 -3
-11 0 -18 7 -9 10 -8 11 6 5 10 -3 15 -9 12 -12z m-797 -35 c2 -12 -3 -17 -17
-17 -15 0 -21 6 -21 21 0 25 33 22 38 -4z m-1818 3 c0 -5 -4 -10 -10 -10 -5 0
-10 5 -10 10 0 6 5 10 10 10 6 0 10 -4 10 -10z m748 -49 c21 -13 10 -46 -16
-49 -27 -4 -40 22 -22 43 14 17 20 18 38 6z m1462 -51 c0 -5 -4 -10 -10 -10
-5 0 -10 5 -10 10 0 6 5 10 10 10 6 0 10 -4 10 -10z m-650 -110 c0 -5 -4 -10
-10 -10 -5 0 -10 5 -10 10 0 6 5 10 10 10 6 0 10 -4 10 -10z m2290 0 c0 -5 -2
-10 -4 -10 -3 0 -8 5 -11 10 -3 6 -1 10 4 10 6 0 11 -4 11 -10z m-3250 -30 c0
-5 -4 -10 -10 -10 -5 0 -10 5 -10 10 0 6 5 10 10 10 6 0 10 -4 10 -10z m1290
-90 c0 -5 -4 -10 -10 -10 -5 0 -10 5 -10 10 0 6 5 10 10 10 6 0 10 -4 10 -10z
m-1830 -163 c0 -16 -20 4 -80 81 l-62 77 71 -75 c39 -41 71 -79 71 -83z m3609
53 c34 -44 60 -80 58 -80 -5 0 -108 127 -121 148 -20 33 7 4 63 -68z m241 20
c0 -5 -2 -10 -4 -10 -3 0 -8 5 -11 10 -3 6 -1 10 4 10 6 0 11 -4 11 -10z
m-3730 -144 c0 -15 -25 11 -74 77 l-48 62 61 -65 c33 -36 60 -69 61 -74z
m1021 99 c16 -9 39 -30 49 -48 20 -32 27 -92 12 -101 -9 -6 -185 39 -214 55
-10 5 -23 7 -28 4 -20 -13 -9 25 17 55 43 51 106 65 164 35z m846 -11 c8 -21
-19 -46 -40 -38 -9 3 -17 17 -17 30 0 19 5 24 25 24 14 0 28 -7 32 -16z m1562
-54 l43 -55 -46 50 c-25 28 -46 54 -46 59 0 5 1 7 3 5 2 -2 22 -29 46 -59z
m741 16 c0 -3 -4 -8 -10 -11 -5 -3 -10 -1 -10 4 0 6 5 11 10 11 6 0 10 -2 10
-4z m-4258 -118 c27 -32 45 -58 40 -58 -6 0 -41 37 -78 83 -72 88 -45 70 38
-25z m186 -106 c57 -62 107 -111 110 -108 2 3 -33 56 -80 118 -90 121 -102
138 -95 138 3 0 60 -65 126 -145 67 -80 126 -145 132 -145 12 0 12 -1 -64 115
-74 112 -68 106 85 -81 68 -83 146 -178 173 -211 l50 -61 120 -4 c128 -4 165
-16 232 -72 45 -38 84 -119 90 -187 4 -40 10 -59 19 -59 19 0 18 -29 -1 -36
-9 -4 -15 -19 -15 -35 l0 -29 -150 0 -149 0 -3 58 -3 57 -402 2 -403 2 0 -129
0 -130 448 0 448 0 52 -26 c69 -34 128 -103 148 -171 12 -42 15 -95 12 -256
-3 -200 -3 -203 -30 -249 -16 -25 -46 -62 -69 -82 -70 -60 -104 -66 -363 -66
-181 -1 -236 -4 -256 -15 -14 -8 -29 -14 -35 -14 -5 0 1 6 15 14 25 14 25 14
-13 15 -38 0 -281 -92 -293 -111 -8 -13 5 -11 96 16 125 37 119 29 -14 -20
-66 -25 -121 -47 -124 -50 -13 -13 9 -13 67 1 35 8 65 13 67 12 1 -2 -74 -30
-167 -62 -115 -40 -177 -56 -194 -52 -54 14 -81 77 -55 127 14 25 52 44 184
90 60 22 111 41 113 43 2 2 -29 5 -69 8 -85 6 -136 28 -189 85 -43 45 -65 84
-74 136 -4 22 -13 37 -21 37 -8 0 -14 5 -14 10 0 6 7 10 15 10 12 0 15 14 15
65 l0 65 150 0 150 0 0 -55 0 -55 405 0 405 0 0 125 0 125 -417 0 c-273 -1
-436 3 -470 10 -95 21 -182 99 -211 190 -12 38 -18 412 -7 445 35 107 103 176
203 206 23 7 42 18 42 25 0 23 34 26 52 4 16 -20 24 -20 203 -18 l186 3 -102
125 c-94 116 -97 120 -37 63 35 -35 67 -63 71 -63 4 0 -40 59 -98 130 -59 72
-104 130 -102 130 6 0 122 -120 160 -165 14 -16 28 -27 32 -24 3 4 -42 71
-102 149 -59 78 -123 163 -142 188 l-33 47 42 -45 c24 -25 90 -96 148 -158z
m3449 126 c26 -34 42 -59 37 -55 -6 3 -32 34 -59 68 -27 35 -44 60 -37 56 6
-5 33 -35 59 -69z m288 42 c0 -18 -6 -26 -23 -28 -13 -2 -25 3 -28 12 -10 26
4 48 28 44 17 -2 23 -10 23 -28z m-3704 -57 c13 -16 12 -17 -3 -4 -17 13 -22
21 -14 21 2 0 10 -8 17 -17z m419 -7 c0 -3 -4 -8 -10 -11 -5 -3 -10 -1 -10 4
0 6 5 11 10 11 6 0 10 -2 10 -4z m1038 -24 c4 -28 -24 -40 -45 -19 -21 21 -9
49 19 45 15 -2 24 -11 26 -26z m-1788 -12 c0 -5 -5 -10 -11 -10 -5 0 -7 5 -4
10 3 6 8 10 11 10 2 0 4 -4 4 -10z m2354 -144 c22 -9 37 -19 34 -22 -6 -6
-108 43 -108 52 0 2 8 1 18 -5 9 -5 35 -16 56 -25z m-989 14 c3 -5 1 -10 -4
-10 -6 0 -11 5 -11 10 0 6 2 10 4 10 3 0 8 -4 11 -10z m1075 -15 c28 -14 50
-28 50 -30 0 -5 -99 42 -109 51 -12 11 15 1 59 -21z m208 -98 c41 -21 85 -43
99 -48 22 -8 24 -8 14 5 -7 8 -35 29 -62 46 -72 47 -60 48 24 2 39 -22 111
-61 160 -87 48 -26 94 -56 102 -68 22 -31 18 -72 -7 -101 -43 -48 -62 -44
-226 40 -143 74 -187 101 -111 70 82 -33 77 -23 -13 27 -144 79 -142 85 5 18
37 -16 67 -27 67 -22 0 6 -160 105 -228 140 -13 7 -22 15 -19 17 2 2 48 -17
102 -42 121 -56 145 -66 145 -56 0 4 -36 29 -80 55 -44 27 -80 50 -80 52 0 6
24 -5 108 -48z m-191 -18 c14 -5 23 -12 20 -15 -5 -6 -127 53 -127 61 0 3 18
-4 40 -15 23 -11 52 -25 67 -31z m-787 -19 c0 -5 -2 -10 -4 -10 -3 0 -8 5 -11
10 -3 6 -1 10 4 10 6 0 11 -4 11 -10z m2330 -18 c32 -23 60 -78 60 -117 0 -70
-72 -144 -126 -131 l-25 7 2 135 3 136 30 -6 c17 -4 42 -14 56 -24z m-3020
-53 c0 -14 -5 -19 -17 -17 -26 5 -29 38 -4 38 15 0 21 -6 21 -21z m3510 -49
c0 -5 -4 -10 -10 -10 -5 0 -10 5 -10 10 0 6 5 10 10 10 6 0 10 -4 10 -10z
m-320 -30 c0 -5 -4 -10 -10 -10 -5 0 -10 5 -10 10 0 6 5 10 10 10 6 0 10 -4
10 -10z m-2900 -50 c0 -5 -5 -10 -11 -10 -5 0 -7 5 -4 10 3 6 8 10 11 10 2 0
4 -4 4 -10z m1760 -40 c0 -5 -4 -10 -10 -10 -5 0 -10 5 -10 10 0 6 5 10 10 10
6 0 10 -4 10 -10z m1030 0 c0 -5 -4 -10 -10 -10 -5 0 -10 5 -10 10 0 6 5 10
10 10 6 0 10 -4 10 -10z m-2672 -98 c4 -28 -24 -40 -45 -19 -21 21 -9 49 19
45 15 -2 24 -11 26 -26z m768 -14 l29 -33 -32 29 c-31 28 -38 36 -30 36 2 0
16 -15 33 -32z m42 -63 c-3 -3 -9 2 -12 12 -6 14 -5 15 5 6 7 -7 10 -15 7 -18z
m-2040 -104 c21 -13 10 -46 -16 -49 -27 -4 -40 22 -22 43 14 17 20 18 38 6z
m642 -51 c0 -5 -4 -10 -10 -10 -5 0 -10 5 -10 10 0 6 5 10 10 10 6 0 10 -4 10
-10z m1391 -23 c-10 -9 -11 -8 -5 6 3 10 9 15 12 12 3 -3 0 -11 -7 -18z m2289
-7 c0 -5 -5 -10 -11 -10 -5 0 -7 5 -4 10 3 6 8 10 11 10 2 0 4 -4 4 -10z
m-2300 -13 c0 -2 -12 -14 -27 -28 l-28 -24 24 28 c23 25 31 32 31 24z m-74
-62 c-11 -8 -25 -15 -30 -15 -6 1 0 7 14 15 32 19 40 18 16 0z m-856 -88 c0
-7 -5 -18 -12 -25 -18 -18 -38 -15 -38 6 0 10 3 22 7 25 11 12 43 7 43 -6z
m3180 -157 c0 -5 -5 -10 -11 -10 -5 0 -7 5 -4 10 3 6 8 10 11 10 2 0 4 -4 4
-10z m-1552 -27 c6 -9 12 -20 12 -25 0 -4 -39 -8 -87 -8 -47 0 -84 2 -82 4 2
2 24 16 49 30 48 28 85 28 108 -1z m1050 -18 c-6 -14 -15 -25 -20 -25 -5 0 -1
11 8 25 9 14 18 25 20 25 2 0 -2 -11 -8 -25z m576 4 c-3 -5 -10 -7 -15 -3 -5
3 -7 10 -3 15 3 5 10 7 15 3 5 -3 7 -10 3 -15z m-534 -19 c0 -5 -5 -10 -11
-10 -5 0 -7 5 -4 10 3 6 8 10 11 10 2 0 4 -4 4 -10z m-3723 -116 c-3 -3 -12
-4 -19 -1 -8 3 -5 6 6 6 11 1 17 -2 13 -5z m4033 -54 c0 -5 -5 -10 -11 -10 -5
0 -7 5 -4 10 3 6 8 10 11 10 2 0 4 -4 4 -10z m-3812 -53 c2 -12 -3 -17 -17
-17 -12 0 -21 6 -21 13 0 31 32 34 38 4z m1019 -121 c-4 -9 -11 -16 -17 -16
-17 0 -24 31 -9 41 18 11 34 -5 26 -25z m2356 -7 c-28 -48 -51 -64 -94 -64
-44 0 -74 24 -84 68 l-7 27 101 0 102 0 -18 -31z m382 -19 c0 -18 -6 -26 -21
-28 -26 -4 -40 24 -23 45 18 21 44 11 44 -17z m-2529 -55 c22 -70 41 -72 35
-4 -2 19 22 31 44 23 11 -4 15 -20 14 -53 -1 -27 -4 -35 -6 -20 -3 21 -9 26
-23 22 -11 -3 -22 -14 -25 -24 -10 -32 -23 -22 -41 34 -9 28 -19 58 -22 65 -2
6 -2 12 1 12 3 0 14 -25 23 -55z m280 -23 c24 2 44 0 44 -4 0 -5 -20 -8 -44
-8 -38 0 -45 -3 -49 -22 -2 -13 -4 9 -4 47 0 43 2 53 4 27 l4 -44 45 4z m481
72 c-3 -3 -12 -4 -19 -1 -8 3 -5 6 6 6 11 1 17 -2 13 -5z m514 -11 c11 -15 11
-16 -1 -5 -16 14 -59 16 -78 3 -8 -5 -18 -24 -22 -42 -7 -32 -8 -32 -9 -6 -2
55 78 91 110 50z m72 -51 c1 -33 -1 -58 -5 -55 -5 2 -8 32 -8 65 0 78 11 70
13 -10z m-1732 38 c53 -29 61 -121 12 -160 -27 -21 -68 -27 -78 -10 -3 6 -2
10 4 10 6 0 9 33 7 85 -3 78 -1 85 16 85 11 0 28 -5 39 -10z m979 -10 c0 -5
-3 -10 -8 -10 -4 0 -7 -17 -6 -37 1 -29 0 -31 -3 -8 -3 16 -9 35 -14 41 -7 8
-5 14 3 17 21 9 28 8 28 -3z m550 0 c0 -5 -4 -10 -10 -10 -5 0 -10 5 -10 10 0
6 5 10 10 10 6 0 10 -4 10 -10z m-1023 -67 c-2 -16 -4 -5 -4 22 0 28 2 40 4
28 2 -13 2 -35 0 -50z m78 57 c3 -6 -1 -7 -9 -4 -18 7 -21 14 -7 14 6 0 13 -4
16 -10z m168 -8 c-10 -10 -20 -17 -22 -16 -6 5 20 34 30 34 5 0 1 -8 -8 -18z
m62 7 c11 -16 1 -19 -13 -3 -7 8 -8 14 -3 14 5 0 13 -5 16 -11z m32 -56 c-2
-16 -4 -5 -4 22 0 28 2 40 4 28 2 -13 2 -35 0 -50z m59 16 c1 -44 1 -44 -3 -4
-3 22 -10 44 -16 48 -8 6 -7 7 3 4 10 -2 15 -18 16 -48z m114 47 c0 -2 -7 -7
-16 -10 -8 -3 -12 -2 -9 4 6 10 25 14 25 6z m46 -7 c3 -6 -4 -21 -17 -33 l-23
-21 19 23 c16 20 17 25 5 32 -9 6 -10 10 -3 10 6 0 15 -5 19 -11z m141 -56
c-2 -16 -4 -5 -4 22 0 28 2 40 4 28 2 -13 2 -35 0 -50z m60 16 c2 -40 1 -41
-7 -15 -5 16 -7 34 -3 39 3 5 -1 14 -8 19 -12 8 -11 9 1 5 10 -2 16 -18 17
-48z m99 35 c-9 -8 -16 -23 -17 -32 0 -10 -3 -12 -5 -5 -7 15 13 53 27 53 6 0
3 -7 -5 -16z m74 -27 c0 -33 -4 -44 -15 -44 -11 0 -12 4 -5 11 5 5 10 25 10
43 0 18 2 33 5 33 3 0 5 -19 5 -43z m41 29 c-5 -6 -11 -27 -14 -46 -3 -31 -4
-30 -5 11 -2 34 2 46 13 46 9 0 11 -4 6 -11z m216 -53 c-2 -16 -4 -5 -4 22 0
28 2 40 4 28 2 -13 2 -35 0 -50z m83 23 c0 -12 -5 -7 -19 24 -11 24 -11 24 3
6 9 -11 16 -24 16 -30z m-591 -6 c0 -10 -3 -8 -9 5 -12 27 -12 43 0 25 5 -8 9
-22 9 -30z m138 -22 c-2 -13 -4 -5 -4 17 -1 22 1 32 4 23 2 -10 2 -28 0 -40z
m-730 -5 c-3 -10 -5 -2 -5 17 0 19 2 27 5 18 2 -10 2 -26 0 -35z m390 25 c-3
-8 -6 -5 -6 6 -1 11 2 17 5 13 3 -3 4 -12 1 -19z m-167 -17 c-6 -12 -15 -21
-21 -21 -6 0 -3 7 5 16 9 8 16 20 16 26 0 6 3 9 6 6 3 -4 1 -16 -6 -27z m-70
-6 c14 -19 14 -19 -2 -6 -10 7 -18 18 -18 24 0 6 1 8 3 6 1 -2 9 -13 17 -24z
m360 0 c14 -19 14 -19 -2 -6 -10 7 -18 18 -18 24 0 6 1 8 3 6 1 -2 9 -13 17
-24z m484 -14 c-2 -3 -12 3 -22 13 -16 17 -16 18 5 5 12 -7 20 -15 17 -18z
m207 15 c12 7 11 -7 -1 -26 -6 -9 -10 -10 -10 -3 0 6 -2 17 -3 25 -2 7 -2 10
0 5 3 -4 9 -5 14 -1z m-786 -6 c3 -5 2 -10 -4 -10 -5 0 -13 5 -16 10 -3 6 -2
10 4 10 5 0 13 -4 16 -10z m151 -5 c-11 -8 -25 -15 -30 -15 -6 1 0 7 14 15 32
19 40 18 16 0z m209 -3 c-3 -3 -11 0 -18 7 -9 10 -8 11 6 5 10 -3 15 -9 12
-12z m290 8 c-3 -5 -12 -10 -18 -10 -7 0 -6 4 3 10 19 12 23 12 15 0z m1155
-140 c0 -5 -4 -10 -10 -10 -5 0 -10 5 -10 10 0 6 5 10 10 10 6 0 10 -4 10 -10z
m-3730 -10 c-8 -5 -19 -10 -25 -10 -5 0 -3 5 5 10 8 5 20 10 25 10 6 0 3 -5
-5 -10z m1255 -29 c7 -12 -12 -24 -25 -16 -11 7 -4 25 10 25 5 0 11 -4 15 -9z
m1000 -11 c3 -5 1 -10 -4 -10 -6 0 -11 5 -11 10 0 6 2 10 4 10 3 0 8 -4 11
-10z m602 4 c-3 -3 -12 -4 -19 -1 -8 3 -5 6 6 6 11 1 17 -2 13 -5z m66 -1 c-7
-2 -19 -2 -25 0 -7 3 -2 5 12 5 14 0 19 -2 13 -5z m-2293 -23 c0 -5 -4 -10
-10 -10 -5 0 -10 5 -10 10 0 6 5 10 10 10 6 0 10 -4 10 -10z m2150 6 c0 -2 -7
-7 -16 -10 -8 -3 -12 -2 -9 4 6 10 25 14 25 6z m-60 -29 c0 -2 -15 -16 -32
-33 l-33 -29 29 33 c28 30 36 37 36 29z m365 -37 c10 -11 16 -20 13 -20 -3 0
-13 9 -23 20 -10 11 -16 20 -13 20 3 0 13 -9 23 -20z m-3005 -30 c0 -5 -2 -10
-4 -10 -3 0 -8 5 -11 10 -3 6 -1 10 4 10 6 0 11 -4 11 -10z m-230 -20 c0 -5
-4 -10 -10 -10 -5 0 -10 5 -10 10 0 6 5 10 10 10 6 0 10 -4 10 -10z m3960 -10
c0 -5 -2 -10 -4 -10 -3 0 -8 5 -11 10 -3 6 -1 10 4 10 6 0 11 -4 11 -10z
m-3550 -100 c0 -5 -4 -10 -10 -10 -5 0 -10 5 -10 10 0 6 5 10 10 10 6 0 10 -4
10 -10z m410 -10 c0 -5 -4 -10 -10 -10 -5 0 -10 5 -10 10 0 6 5 10 10 10 6 0
10 -4 10 -10z m3360 -34 c0 -11 -19 -15 -25 -6 -3 5 1 10 9 10 9 0 16 -2 16
-4z m-883 -38 c-3 -8 -6 -5 -6 6 -1 11 2 17 5 13 3 -3 4 -12 1 -19z m-1100
-24 c8 -21 -13 -42 -28 -27 -13 13 -5 43 11 43 6 0 13 -7 17 -16z m-2429 -22
c4 -28 -24 -40 -45 -19 -14 13 -14 19 -3 32 18 22 44 15 48 -13z m1292 8 c0
-5 -4 -10 -10 -10 -5 0 -10 5 -10 10 0 6 5 10 10 10 6 0 10 -4 10 -10z m85
-50 c3 -5 1 -10 -4 -10 -6 0 -11 5 -11 10 0 6 2 10 4 10 3 0 8 -4 11 -10z
m979 -49 c32 -29 138 -158 150 -181 4 -8 -15 9 -43 39 -55 59 -77 66 -33 10
15 -19 54 -70 86 -114 l58 -80 -86 90 c-47 50 -85 86 -86 81 0 -8 145 -224
198 -293 13 -18 22 -33 19 -33 -3 0 -51 53 -105 118 -156 184 -187 202 -81 46
67 -97 94 -146 62 -108 -10 12 -55 69 -101 128 -80 102 -125 142 -84 74 98
-165 88 -164 -38 3 -62 82 -90 128 -90 147 0 42 35 90 72 100 43 11 67 5 102
-27z m716 4 c13 -14 21 -25 18 -25 -2 0 -15 11 -28 25 -13 14 -21 25 -18 25 2
0 15 -11 28 -25z m400 12 c0 -2 -10 -12 -22 -23 l-23 -19 19 23 c18 21 26 27
26 19z m-2830 -57 c0 -5 -4 -10 -10 -10 -5 0 -10 5 -10 10 0 6 5 10 10 10 6 0
10 -4 10 -10z m260 -10 c0 -5 -5 -10 -11 -10 -5 0 -7 5 -4 10 3 6 8 10 11 10
2 0 4 -4 4 -10z m100 -30 c0 -5 -2 -10 -4 -10 -3 0 -8 5 -11 10 -3 6 -1 10 4
10 6 0 11 -4 11 -10z m2283 3 c-13 -2 -35 -2 -50 0 -16 2 -5 4 22 4 28 0 40
-2 28 -4z m-2946 -29 c3 -8 -2 -23 -11 -32 -15 -15 -17 -15 -32 0 -21 21 -11
48 16 48 11 0 23 -7 27 -16z m3651 -27 c2 -12 -3 -17 -17 -17 -12 0 -21 6 -21
13 0 31 32 34 38 4z m-3918 -17 c0 -5 -4 -10 -10 -10 -5 0 -10 5 -10 10 0 6 5
10 10 10 6 0 10 -4 10 -10z m4360 -64 c0 -3 -4 -8 -10 -11 -5 -3 -10 -1 -10 4
0 6 5 11 10 11 6 0 10 -2 10 -4z m-280 -114 c74 -37 102 -131 59 -201 -11 -18
-22 -32 -24 -30 -77 72 -195 192 -195 199 0 17 63 50 95 50 17 0 46 -8 65 -18z
m240 -27 c0 -19 -20 -29 -32 -17 -15 15 -2 43 17 36 8 -3 15 -12 15 -19z
m-860 11 c0 -3 -4 -8 -10 -11 -5 -3 -10 -1 -10 4 0 6 5 11 10 11 6 0 10 -2 10
-4z m-2641 -50 c62 -20 116 -35 118 -32 3 2 -17 16 -44 31 -26 14 -41 24 -32
21 98 -28 302 -98 318 -108 11 -7 26 -25 32 -41 10 -24 9 -32 -8 -55 -11 -15
-34 -31 -51 -36 -27 -8 -34 -17 -58 -87 -15 -44 -31 -79 -35 -79 -9 0 -71 170
-66 183 1 5 16 -29 32 -76 16 -48 32 -83 36 -79 9 11 52 132 48 136 -2 1 -60
21 -129 44 -69 23 -112 40 -97 38 45 -6 19 9 -70 39 -46 16 -81 30 -79 32 2 2
36 -5 75 -16 39 -11 71 -16 71 -13 0 8 -75 39 -228 95 -45 16 -81 31 -79 33 1
2 63 -15 137 -37 74 -22 142 -38 150 -36 8 1 -28 20 -80 41 -52 21 -97 40
-100 44 -3 3 2 3 10 0 8 -3 66 -22 129 -42z m1775 -33 c37 -50 44 -64 21 -38
-60 65 -97 115 -87 115 5 0 35 -35 66 -77z m-233 10 c13 -16 12 -17 -3 -4 -10
7 -18 15 -18 17 0 8 8 3 21 -13z m-961 -13 c0 -5 -5 -10 -11 -10 -5 0 -7 5 -4
10 3 6 8 10 11 10 2 0 4 -4 4 -10z m2328 -13 c2 -12 -3 -17 -17 -17 -12 0 -21
6 -21 13 0 31 32 34 38 4z m-568 3 c0 -5 -5 -10 -11 -10 -5 0 -7 5 -4 10 3 6
8 10 11 10 2 0 4 -4 4 -10z m285 -10 c3 -5 1 -10 -4 -10 -6 0 -11 5 -11 10 0
6 2 10 4 10 3 0 8 -4 11 -10z m-3459 -44 c43 -43 45 -83 7 -125 -16 -17 -39
-33 -53 -36 l-25 -6 3 79 c2 47 -1 88 -7 101 -11 19 -9 21 15 21 16 0 39 -13
60 -34z m2533 -26 l33 -45 -41 45 c-23 25 -41 49 -41 55 0 11 6 5 49 -55z
m-1672 -6 c-3 -3 -12 -4 -19 -1 -8 3 -5 6 6 6 11 1 17 -2 13 -5z m1785 -59
l48 -64 30 31 c27 27 36 30 71 25 22 -3 46 -11 55 -18 23 -19 9 -21 -23 -3
-55 32 -119 -6 -121 -72 -3 -69 76 -108 138 -68 l25 16 -24 -21 c-37 -33 -93
-28 -125 10 -16 18 -26 43 -26 61 0 22 -14 46 -48 87 -55 63 -67 81 -55 81 4
0 29 -29 55 -65z m-902 35 c0 -5 -5 -10 -11 -10 -5 0 -7 5 -4 10 3 6 8 10 11
10 2 0 4 -4 4 -10z m2690 -40 c0 -5 -4 -10 -10 -10 -5 0 -10 5 -10 10 0 6 5
10 10 10 6 0 10 -4 10 -10z m-3047 -72 c5 6 13 12 20 12 6 0 2 -6 -8 -14 -13
-9 -21 -32 -26 -67 -5 -42 -6 -33 -6 46 0 66 2 85 6 55 4 -28 9 -40 14 -32z
m1225 21 c15 -1 15 -2 0 -6 -14 -4 -18 -15 -18 -57 0 -28 6 -58 13 -65 10 -11
9 -13 -3 -9 -11 3 -16 22 -18 64 -2 32 -9 62 -15 66 -9 6 -9 8 1 8 6 0 13 12
13 28 l2 27 4 -27 c3 -17 11 -28 21 -29z m-2118 21 c0 -5 -4 -10 -10 -10 -5 0
-10 5 -10 10 0 6 5 10 10 10 6 0 10 -4 10 -10z m450 -14 c0 -3 -4 -8 -10 -11
-5 -3 -10 -1 -10 4 0 6 5 11 10 11 6 0 10 -2 10 -4z m368 -22 c12 -8 22 -21
22 -29 0 -9 -9 -6 -25 10 -28 29 -42 31 -73 9 -17 -12 -22 -25 -22 -60 0 -24
-3 -44 -7 -44 -5 0 -6 28 -4 62 2 35 6 57 8 51 4 -10 10 -9 26 2 27 19 47 19
75 -1z m174 -16 l29 -32 22 27 c33 40 70 45 101 13 30 -29 33 -62 10 -94 -20
-29 -76 -30 -104 -2 -26 26 -38 25 -43 -2 -2 -13 -5 -4 -6 19 -2 58 -9 73 -45
89 -20 9 -25 13 -13 14 11 0 32 -14 49 -32z m220 18 c7 5 8 2 2 -7 -5 -8 -12
-39 -15 -69 -6 -54 -6 -53 -7 20 0 41 2 69 5 62 2 -6 10 -9 15 -6z m58 -1 c15
-14 18 -14 30 0 34 41 71 2 68 -73 l-1 -57 -6 59 c-11 105 -70 103 -72 -3 l-2
-56 -6 57 c-7 61 -6 59 -36 76 -13 7 -15 12 -6 12 8 0 22 -7 31 -15z m229 -1
l23 -16 -48 -49 c-48 -49 -48 -49 -20 -49 15 0 37 5 49 12 20 10 21 10 8 -5
-19 -24 -76 -22 -101 3 -27 27 -25 66 5 95 28 29 51 31 84 9z m71 -2 c-26 -21
-21 -38 16 -52 33 -13 41 -38 18 -58 -17 -16 -17 -16 -5 0 15 21 8 48 -13 48
-16 0 -46 26 -46 40 0 12 29 40 42 40 6 0 0 -8 -12 -18z m162 -1 c-5 -14 -4
-14 14 -1 15 11 16 11 7 0 -7 -8 -14 -39 -14 -69 l-2 -56 -6 58 c-6 58 -23 82
-49 72 -7 -3 -10 -1 -7 4 3 6 18 9 34 9 22 -1 28 -5 23 -17z m72 3 c11 -11 15
-32 14 -72 l-2 -57 -3 57 c-3 45 -9 61 -26 73 -12 8 -16 15 -10 15 6 0 19 -7
27 -16z m143 1 c16 -12 22 -12 26 -2 3 6 6 -19 6 -57 1 -38 -2 -66 -6 -63 -3
4 -5 27 -5 52 2 38 -2 47 -23 61 -32 21 -69 7 -87 -30 -9 -20 -8 -30 7 -52 15
-23 22 -26 58 -21 27 4 36 2 26 -4 -20 -13 -62 -11 -82 4 -9 6 -20 26 -23 44
-5 26 -1 37 19 57 30 30 53 33 84 11z m100 5 c12 10 11 6 -4 -10 -14 -17 -23
-42 -26 -75 -3 -39 -4 -34 -5 25 -1 48 2 70 7 61 8 -13 12 -13 28 -1z m-1370
-97 c-2 -21 -4 -6 -4 32 0 39 2 55 4 38 2 -18 2 -50 0 -70z m937 81 c3 -8 2
-12 -4 -9 -6 3 -10 10 -10 16 0 14 7 11 14 -7z m39 -24 c-4 -23 -2 -30 10 -30
18 0 29 -24 21 -45 -6 -16 -39 -21 -48 -7 -8 13 6 122 15 116 5 -2 6 -18 2
-34z m744 18 c-3 -8 -6 -5 -6 6 -1 11 2 17 5 13 3 -3 4 -12 1 -19z m403 -48
c0 -5 -2 -10 -4 -10 -3 0 -8 5 -11 10 -3 6 -1 10 4 10 6 0 11 -4 11 -10z
m-403 -42 c-3 -8 -6 -5 -6 6 -1 11 2 17 5 13 3 -3 4 -12 1 -19z m-2532 -8 c0
-8 -8 -16 -17 -18 -13 -2 -18 3 -18 18 0 15 5 20 18 18 9 -2 17 -10 17 -18z
m1696 3 c13 -16 12 -17 -3 -4 -10 7 -18 15 -18 17 0 8 8 3 21 -13z m-761 -13
c0 -5 -4 -10 -10 -10 -5 0 -10 5 -10 10 0 6 5 10 10 10 6 0 10 -4 10 -10z
m2520 -4 c0 -3 -4 -8 -10 -11 -5 -3 -10 -1 -10 4 0 6 5 11 10 11 6 0 10 -2 10
-4z m430 -16 c0 -5 -4 -10 -10 -10 -5 0 -10 5 -10 10 0 6 5 10 10 10 6 0 10
-4 10 -10z"/>
<path d="M2480 4530 l0 -70 70 0 70 0 0 70 0 70 -70 0 -70 0 0 -70z m53 6
c-10 -13 -20 -22 -22 -20 -4 4 29 44 36 44 2 0 -4 -11 -14 -24z m51 -20 c-3
-8 -13 -17 -22 -21 -13 -5 -13 -2 3 15 21 24 26 25 19 6z"/>
<path d="M2830 4485 c0 -24 2 -25 70 -25 68 0 70 1 70 25 0 24 -2 25 -70 25
-68 0 -70 -1 -70 -25z"/>
<path d="M358 1339 c-32 -16 -58 -31 -58 -33 0 -5 148 48 156 57 19 19 -47 3
-98 -24z"/>
<path d="M431 1333 c-46 -20 -79 -39 -73 -41 13 -4 242 65 242 73 0 3 -19 5
-42 5 -27 -1 -75 -15 -127 -37z"/>
<path d="M1906 159 c-30 -23 -33 -45 -10 -77 30 -43 104 -17 104 36 0 25 -33
62 -54 62 -7 0 -25 -9 -40 -21z"/>
<path d="M2260 160 c-22 -22 -26 -60 -8 -78 9 -9 20 -4 50 25 41 40 47 57 22
67 -27 10 -43 7 -64 -14z"/>
</g>
</svg>
